<mxfile host="app.diagrams.net" modified="2023-11-17T05:40:41.646Z" agent="Mozilla/5.0 (Windows NT 10.0; Win64; x64) AppleWebKit/537.36 (KHTML, like Gecko) Chrome/119.0.0.0 Safari/537.36" etag="Dj1m0PTLJoo9L8g9_Ls7" version="22.1.2" type="github">
  <diagram name="Page-1" id="QZaOCCa2CXClQdpz971x">
    <mxGraphModel dx="2204" dy="1802" grid="1" gridSize="10" guides="1" tooltips="1" connect="1" arrows="1" fold="1" page="1" pageScale="1" pageWidth="850" pageHeight="1100" math="0" shadow="0">
      <root>
        <mxCell id="0" />
        <mxCell id="1" parent="0" />
        <mxCell id="zWq0DZ0RbpLFLj6K2Atk-1" value="&lt;font face=&quot;Times New Roman&quot; color=&quot;#9eaaab&quot; style=&quot;font-size: 16px;&quot;&gt;&lt;b&gt;AWS Cloud&lt;/b&gt;&lt;/font&gt;" style="sketch=0;outlineConnect=0;gradientColor=none;html=1;whiteSpace=wrap;fontSize=12;fontStyle=0;shape=mxgraph.aws4.group;grIcon=mxgraph.aws4.group_aws_cloud;strokeColor=#000000;fillColor=none;verticalAlign=top;align=left;spacingLeft=30;fontColor=#AAB7B8;dashed=0;strokeWidth=2;" parent="1" vertex="1">
          <mxGeometry x="40" width="840" height="920" as="geometry" />
        </mxCell>
        <mxCell id="zWq0DZ0RbpLFLj6K2Atk-2" value="&lt;font face=&quot;Times New Roman&quot; color=&quot;#929599&quot;&gt;&lt;span style=&quot;font-size: 15px;&quot;&gt;&lt;b&gt;MUMBAI&lt;/b&gt;&lt;/span&gt;&lt;/font&gt;" style="sketch=0;outlineConnect=0;gradientColor=none;html=1;whiteSpace=wrap;fontSize=12;fontStyle=0;shape=mxgraph.aws4.group;grIcon=mxgraph.aws4.group_region;strokeColor=#26BF20;fillColor=none;verticalAlign=top;align=left;spacingLeft=30;fontColor=#B6BABF;dashed=1;strokeWidth=2;" parent="1" vertex="1">
          <mxGeometry x="120" y="80" width="680" height="760" as="geometry" />
        </mxCell>
        <mxCell id="zWq0DZ0RbpLFLj6K2Atk-3" value="&lt;font face=&quot;Times New Roman&quot; style=&quot;font-size: 14px;&quot;&gt;&lt;b&gt;VPC&lt;/b&gt;&lt;/font&gt;" style="shape=mxgraph.ibm.box;prType=vpc;fontStyle=0;verticalAlign=top;align=left;spacingLeft=32;spacingTop=4;fillColor=none;rounded=0;whiteSpace=wrap;html=1;strokeColor=#4376BB;strokeWidth=2;dashed=0;container=1;spacing=-4;collapsible=0;expand=0;recursiveResize=0;" parent="1" vertex="1">
          <mxGeometry x="160" y="120" width="600" height="680" as="geometry" />
        </mxCell>
        <mxCell id="zWq0DZ0RbpLFLj6K2Atk-4" value="&lt;font face=&quot;Times New Roman&quot; color=&quot;#000000&quot;&gt;&lt;b&gt;AP-SOUTH-1A&lt;/b&gt;&lt;/font&gt;" style="sketch=0;outlineConnect=0;gradientColor=none;html=1;whiteSpace=wrap;fontSize=12;fontStyle=0;shape=mxgraph.aws4.group;grIcon=mxgraph.aws4.group_availability_zone;strokeColor=#66B2FF;fillColor=none;verticalAlign=top;align=left;spacingLeft=30;fontColor=#545B64;dashed=1;strokeWidth=2;perimeterSpacing=0;" parent="zWq0DZ0RbpLFLj6K2Atk-3" vertex="1">
          <mxGeometry x="80" y="40" width="440" height="600" as="geometry" />
        </mxCell>
        <mxCell id="zWq0DZ0RbpLFLj6K2Atk-5" value="&lt;b&gt;&lt;font face=&quot;Times New Roman&quot; color=&quot;#000000&quot;&gt;PUBLIC Subnet&lt;/font&gt;&lt;/b&gt;" style="outlineConnect=0;gradientColor=none;html=1;whiteSpace=wrap;fontSize=12;fontStyle=0;shape=mxgraph.aws4.group;grIcon=mxgraph.aws4.group_subnet;strokeColor=#474e52;fillColor=none;verticalAlign=top;align=left;spacingLeft=30;fontColor=#879196;dashed=0;strokeWidth=2;labelBackgroundColor=none;shadow=0;" parent="zWq0DZ0RbpLFLj6K2Atk-3" vertex="1">
          <mxGeometry x="160" y="80" width="280" height="280" as="geometry" />
        </mxCell>
        <mxCell id="zWq0DZ0RbpLFLj6K2Atk-7" value="&lt;font face=&quot;Times New Roman&quot;&gt;&lt;b&gt;Security group&lt;/b&gt;&lt;/font&gt;" style="fillColor=none;strokeColor=#DD3522;verticalAlign=top;fontStyle=0;fontColor=#DD3522;whiteSpace=wrap;html=1;rounded=1;" parent="zWq0DZ0RbpLFLj6K2Atk-3" vertex="1">
          <mxGeometry x="200" y="118" width="200" height="202" as="geometry" />
        </mxCell>
        <mxCell id="zWq0DZ0RbpLFLj6K2Atk-32" value="&lt;font face=&quot;Times New Roman&quot; color=&quot;#000000&quot;&gt;&lt;b&gt;PRIVATE Subnet&lt;/b&gt;&lt;/font&gt;" style="outlineConnect=0;gradientColor=none;html=1;whiteSpace=wrap;fontSize=12;fontStyle=0;shape=mxgraph.aws4.group;grIcon=mxgraph.aws4.group_subnet;strokeColor=#50595e;fillColor=none;verticalAlign=top;align=left;spacingLeft=30;fontColor=#879196;dashed=0;strokeWidth=2;" parent="zWq0DZ0RbpLFLj6K2Atk-3" vertex="1">
          <mxGeometry x="160" y="410" width="280" height="190" as="geometry" />
        </mxCell>
        <mxCell id="zWq0DZ0RbpLFLj6K2Atk-8" value="" style="sketch=0;outlineConnect=0;fontColor=#232F3E;gradientColor=none;fillColor=#ED7100;strokeColor=none;dashed=0;verticalLabelPosition=bottom;verticalAlign=top;align=center;html=1;fontSize=12;fontStyle=0;aspect=fixed;pointerEvents=1;shape=mxgraph.aws4.ec2_m6i_instance;" parent="zWq0DZ0RbpLFLj6K2Atk-3" vertex="1">
          <mxGeometry x="276" y="150" width="48" height="48" as="geometry" />
        </mxCell>
        <mxCell id="zWq0DZ0RbpLFLj6K2Atk-10" value="" style="sketch=0;outlineConnect=0;fontColor=#232F3E;gradientColor=none;fillColor=#ED7100;strokeColor=none;dashed=0;verticalLabelPosition=bottom;verticalAlign=top;align=center;html=1;fontSize=12;fontStyle=0;aspect=fixed;pointerEvents=1;shape=mxgraph.aws4.ec2_m6i_instance;" parent="zWq0DZ0RbpLFLj6K2Atk-3" vertex="1">
          <mxGeometry x="276" y="234" width="48" height="48" as="geometry" />
        </mxCell>
        <mxCell id="zWq0DZ0RbpLFLj6K2Atk-34" style="edgeStyle=orthogonalEdgeStyle;rounded=0;orthogonalLoop=1;jettySize=auto;html=1;exitX=0.5;exitY=0;exitDx=0;exitDy=0;startArrow=classic;startFill=1;strokeWidth=2;" parent="zWq0DZ0RbpLFLj6K2Atk-3" source="zWq0DZ0RbpLFLj6K2Atk-33" target="zWq0DZ0RbpLFLj6K2Atk-14" edge="1">
          <mxGeometry relative="1" as="geometry" />
        </mxCell>
        <mxCell id="zWq0DZ0RbpLFLj6K2Atk-33" value="&lt;font face=&quot;Times New Roman&quot;&gt;&lt;b&gt;Security group&lt;/b&gt;&lt;/font&gt;" style="fillColor=none;strokeColor=#DD3522;verticalAlign=top;fontStyle=0;fontColor=#DD3522;whiteSpace=wrap;html=1;rounded=1;" parent="zWq0DZ0RbpLFLj6K2Atk-3" vertex="1">
          <mxGeometry x="200" y="440" width="200" height="120" as="geometry" />
        </mxCell>
        <mxCell id="zWq0DZ0RbpLFLj6K2Atk-9" value="" style="sketch=0;outlineConnect=0;fontColor=#232F3E;gradientColor=none;fillColor=#ED7100;strokeColor=none;dashed=0;verticalLabelPosition=bottom;verticalAlign=top;align=center;html=1;fontSize=12;fontStyle=0;aspect=fixed;pointerEvents=1;shape=mxgraph.aws4.ec2_m6i_instance;" parent="zWq0DZ0RbpLFLj6K2Atk-3" vertex="1">
          <mxGeometry x="276" y="480" width="48" height="48" as="geometry" />
        </mxCell>
        <mxCell id="zWq0DZ0RbpLFLj6K2Atk-15" value="&lt;font face=&quot;Times New Roman&quot;&gt;&lt;b&gt;PRD-HMD-DB&lt;/b&gt;&lt;/font&gt;" style="text;html=1;align=center;verticalAlign=middle;resizable=0;points=[];autosize=1;strokeColor=none;fillColor=none;" parent="zWq0DZ0RbpLFLj6K2Atk-3" vertex="1">
          <mxGeometry x="250" y="528" width="100" height="30" as="geometry" />
        </mxCell>
        <mxCell id="zWq0DZ0RbpLFLj6K2Atk-13" value="&lt;font face=&quot;Times New Roman&quot;&gt;&lt;b&gt;PRD-HMD-APP&lt;/b&gt;&lt;/font&gt;" style="text;html=1;align=center;verticalAlign=middle;resizable=0;points=[];autosize=1;strokeColor=none;fillColor=none;" parent="zWq0DZ0RbpLFLj6K2Atk-3" vertex="1">
          <mxGeometry x="245" y="204" width="110" height="30" as="geometry" />
        </mxCell>
        <mxCell id="zWq0DZ0RbpLFLj6K2Atk-14" value="&lt;font face=&quot;Times New Roman&quot;&gt;&lt;b&gt;UAT-APP-DB&lt;/b&gt;&lt;/font&gt;" style="text;html=1;align=center;verticalAlign=middle;resizable=0;points=[];autosize=1;strokeColor=none;fillColor=none;" parent="zWq0DZ0RbpLFLj6K2Atk-3" vertex="1">
          <mxGeometry x="255" y="290" width="90" height="30" as="geometry" />
        </mxCell>
        <mxCell id="zWq0DZ0RbpLFLj6K2Atk-35" value="&lt;font face=&quot;Times New Roman&quot;&gt;&lt;b&gt;PORT: 3306&lt;/b&gt;&lt;/font&gt;" style="text;html=1;align=center;verticalAlign=middle;resizable=0;points=[];autosize=1;strokeColor=none;fillColor=none;" parent="zWq0DZ0RbpLFLj6K2Atk-3" vertex="1">
          <mxGeometry x="292" y="370" width="90" height="30" as="geometry" />
        </mxCell>
        <mxCell id="zWq0DZ0RbpLFLj6K2Atk-39" value="&lt;font face=&quot;Times New Roman&quot;&gt;&lt;b&gt;PORT: 22&lt;/b&gt;&lt;/font&gt;" style="text;html=1;align=center;verticalAlign=middle;resizable=0;points=[];autosize=1;strokeColor=none;fillColor=none;" parent="zWq0DZ0RbpLFLj6K2Atk-3" vertex="1">
          <mxGeometry y="210" width="70" height="30" as="geometry" />
        </mxCell>
        <mxCell id="zWq0DZ0RbpLFLj6K2Atk-36" value="" style="outlineConnect=0;dashed=0;verticalLabelPosition=bottom;verticalAlign=top;align=center;html=1;shape=mxgraph.aws3.corporate_data_center;fillColor=#7D7C7C;gradientColor=none;" parent="1" vertex="1">
          <mxGeometry x="-40" y="320" width="46.5" height="63" as="geometry" />
        </mxCell>
        <mxCell id="zWq0DZ0RbpLFLj6K2Atk-37" style="edgeStyle=orthogonalEdgeStyle;rounded=0;orthogonalLoop=1;jettySize=auto;html=1;exitX=1;exitY=0.5;exitDx=0;exitDy=0;exitPerimeter=0;" parent="1" source="zWq0DZ0RbpLFLj6K2Atk-36" edge="1">
          <mxGeometry relative="1" as="geometry">
            <mxPoint x="45.50000000000023" y="350.47058823529414" as="sourcePoint" />
            <mxPoint x="319" y="351" as="targetPoint" />
          </mxGeometry>
        </mxCell>
        <mxCell id="zWq0DZ0RbpLFLj6K2Atk-38" value="&lt;font face=&quot;Times New Roman&quot;&gt;&lt;b&gt;BOTREE&lt;br&gt;DATA&lt;br&gt;CENTER&lt;br&gt;&lt;/b&gt;&lt;/font&gt;" style="text;html=1;align=center;verticalAlign=middle;resizable=0;points=[];autosize=1;strokeColor=none;fillColor=none;" parent="1" vertex="1">
          <mxGeometry x="-51.75" y="383" width="70" height="60" as="geometry" />
        </mxCell>
        <mxCell id="zWq0DZ0RbpLFLj6K2Atk-42" value="" style="sketch=0;pointerEvents=1;shadow=0;dashed=0;html=1;strokeColor=none;fillColor=#505050;labelPosition=center;verticalLabelPosition=bottom;verticalAlign=top;outlineConnect=0;align=center;shape=mxgraph.office.communications.dynamic_distribution_group;" parent="1" vertex="1">
          <mxGeometry x="440" y="-110" width="58" height="59" as="geometry" />
        </mxCell>
        <mxCell id="zWq0DZ0RbpLFLj6K2Atk-43" style="edgeStyle=orthogonalEdgeStyle;rounded=0;orthogonalLoop=1;jettySize=auto;html=1;entryX=0.52;entryY=0.067;entryDx=0;entryDy=0;entryPerimeter=0;startArrow=classic;startFill=1;endArrow=none;endFill=0;" parent="1" source="zWq0DZ0RbpLFLj6K2Atk-42" target="zWq0DZ0RbpLFLj6K2Atk-4" edge="1">
          <mxGeometry relative="1" as="geometry" />
        </mxCell>
        <mxCell id="zWq0DZ0RbpLFLj6K2Atk-44" value="&lt;font face=&quot;Times New Roman&quot;&gt;&lt;b&gt;Port : 443&lt;br&gt;HMD Users&lt;br&gt;&lt;br&gt;&lt;/b&gt;&lt;/font&gt;" style="text;html=1;align=center;verticalAlign=middle;resizable=0;points=[];autosize=1;strokeColor=none;fillColor=none;strokeWidth=2;" parent="1" vertex="1">
          <mxGeometry x="466" y="-51" width="80" height="60" as="geometry" />
        </mxCell>
        <mxCell id="zWq0DZ0RbpLFLj6K2Atk-45" value="" style="outlineConnect=0;dashed=0;verticalLabelPosition=bottom;verticalAlign=top;align=center;html=1;shape=mxgraph.aws3.cloudwatch;fillColor=#759C3E;gradientColor=none;" parent="1" vertex="1">
          <mxGeometry x="816" y="580" width="50" height="60" as="geometry" />
        </mxCell>
        <mxCell id="zWq0DZ0RbpLFLj6K2Atk-46" value="" style="sketch=0;points=[[0,0,0],[0.25,0,0],[0.5,0,0],[0.75,0,0],[1,0,0],[0,1,0],[0.25,1,0],[0.5,1,0],[0.75,1,0],[1,1,0],[0,0.25,0],[0,0.5,0],[0,0.75,0],[1,0.25,0],[1,0.5,0],[1,0.75,0]];outlineConnect=0;fontColor=#232F3E;gradientColor=#4D72F3;gradientDirection=north;fillColor=#3334B9;strokeColor=#ffffff;dashed=0;verticalLabelPosition=bottom;verticalAlign=top;align=center;html=1;fontSize=12;fontStyle=0;aspect=fixed;shape=mxgraph.aws4.resourceIcon;resIcon=mxgraph.aws4.simple_email_service;" parent="1" vertex="1">
          <mxGeometry x="816" y="260" width="50" height="50" as="geometry" />
        </mxCell>
        <mxCell id="zWq0DZ0RbpLFLj6K2Atk-49" value="" style="sketch=0;points=[[0,0,0],[0.25,0,0],[0.5,0,0],[0.75,0,0],[1,0,0],[0,1,0],[0.25,1,0],[0.5,1,0],[0.75,1,0],[1,1,0],[0,0.25,0],[0,0.5,0],[0,0.75,0],[1,0.25,0],[1,0.5,0],[1,0.75,0]];outlineConnect=0;fontColor=#232F3E;fillColor=#E7157B;strokeColor=#ffffff;dashed=0;verticalLabelPosition=bottom;verticalAlign=top;align=center;html=1;fontSize=12;fontStyle=0;aspect=fixed;shape=mxgraph.aws4.resourceIcon;resIcon=mxgraph.aws4.sns;" parent="1" vertex="1">
          <mxGeometry x="816" y="418" width="50" height="50" as="geometry" />
        </mxCell>
        <mxCell id="zWq0DZ0RbpLFLj6K2Atk-50" value="" style="sketch=0;points=[[0,0,0],[0.25,0,0],[0.5,0,0],[0.75,0,0],[1,0,0],[0,1,0],[0.25,1,0],[0.5,1,0],[0.75,1,0],[1,1,0],[0,0.25,0],[0,0.5,0],[0,0.75,0],[1,0.25,0],[1,0.5,0],[1,0.75,0]];outlineConnect=0;fontColor=#232F3E;fillColor=#7AA116;strokeColor=#ffffff;dashed=0;verticalLabelPosition=bottom;verticalAlign=top;align=center;html=1;fontSize=12;fontStyle=0;aspect=fixed;shape=mxgraph.aws4.resourceIcon;resIcon=mxgraph.aws4.s3;" parent="1" vertex="1">
          <mxGeometry x="940" y="417" width="52" height="52" as="geometry" />
        </mxCell>
        <mxCell id="zWq0DZ0RbpLFLj6K2Atk-52" value="&lt;font face=&quot;Times New Roman&quot;&gt;&lt;b&gt;E-MAIL&lt;/b&gt;&lt;/font&gt;" style="text;html=1;align=center;verticalAlign=middle;resizable=0;points=[];autosize=1;strokeColor=none;fillColor=none;" parent="1" vertex="1">
          <mxGeometry x="806" y="230" width="70" height="30" as="geometry" />
        </mxCell>
        <mxCell id="zWq0DZ0RbpLFLj6K2Atk-53" value="&lt;font face=&quot;Times New Roman&quot;&gt;&lt;b&gt;S3&lt;/b&gt;&lt;/font&gt;" style="text;html=1;align=center;verticalAlign=middle;resizable=0;points=[];autosize=1;strokeColor=none;fillColor=none;" parent="1" vertex="1">
          <mxGeometry x="946" y="468" width="40" height="30" as="geometry" />
        </mxCell>
        <mxCell id="zWq0DZ0RbpLFLj6K2Atk-54" value="&lt;font face=&quot;Times New Roman&quot;&gt;&lt;b&gt;Cloud Watch&lt;/b&gt;&lt;/font&gt;" style="text;html=1;align=center;verticalAlign=middle;resizable=0;points=[];autosize=1;strokeColor=none;fillColor=none;" parent="1" vertex="1">
          <mxGeometry x="796" y="640" width="90" height="30" as="geometry" />
        </mxCell>
        <mxCell id="zWq0DZ0RbpLFLj6K2Atk-55" value="&lt;font face=&quot;Times New Roman&quot;&gt;&lt;b&gt;SNS&lt;/b&gt;&lt;/font&gt;" style="text;html=1;align=center;verticalAlign=middle;resizable=0;points=[];autosize=1;strokeColor=none;fillColor=none;" parent="1" vertex="1">
          <mxGeometry x="816" y="480" width="50" height="30" as="geometry" />
        </mxCell>
        <mxCell id="zWq0DZ0RbpLFLj6K2Atk-59" style="edgeStyle=orthogonalEdgeStyle;rounded=0;orthogonalLoop=1;jettySize=auto;html=1;exitX=0.5;exitY=1;exitDx=0;exitDy=0;exitPerimeter=0;entryX=0.5;entryY=0;entryDx=0;entryDy=0;entryPerimeter=0;startArrow=classic;startFill=1;" parent="1" source="zWq0DZ0RbpLFLj6K2Atk-46" target="zWq0DZ0RbpLFLj6K2Atk-49" edge="1">
          <mxGeometry relative="1" as="geometry" />
        </mxCell>
        <mxCell id="zWq0DZ0RbpLFLj6K2Atk-60" style="edgeStyle=orthogonalEdgeStyle;rounded=0;orthogonalLoop=1;jettySize=auto;html=1;exitX=0.5;exitY=1;exitDx=0;exitDy=0;exitPerimeter=0;entryX=0.5;entryY=0.05;entryDx=0;entryDy=0;entryPerimeter=0;startArrow=classic;startFill=1;" parent="1" source="zWq0DZ0RbpLFLj6K2Atk-49" target="zWq0DZ0RbpLFLj6K2Atk-45" edge="1">
          <mxGeometry relative="1" as="geometry" />
        </mxCell>
        <mxCell id="zWq0DZ0RbpLFLj6K2Atk-61" style="edgeStyle=orthogonalEdgeStyle;rounded=0;orthogonalLoop=1;jettySize=auto;html=1;exitX=1;exitY=0.5;exitDx=0;exitDy=0;exitPerimeter=0;entryX=0;entryY=0.5;entryDx=0;entryDy=0;entryPerimeter=0;startArrow=classic;startFill=1;" parent="1" source="zWq0DZ0RbpLFLj6K2Atk-49" target="zWq0DZ0RbpLFLj6K2Atk-50" edge="1">
          <mxGeometry relative="1" as="geometry" />
        </mxCell>
        <mxCell id="zWq0DZ0RbpLFLj6K2Atk-62" style="edgeStyle=orthogonalEdgeStyle;rounded=0;orthogonalLoop=1;jettySize=auto;html=1;exitX=0;exitY=0.5;exitDx=0;exitDy=0;exitPerimeter=0;entryX=1;entryY=0.475;entryDx=0;entryDy=0;entryPerimeter=0;startArrow=classic;startFill=1;endArrow=none;endFill=0;" parent="1" source="zWq0DZ0RbpLFLj6K2Atk-49" target="zWq0DZ0RbpLFLj6K2Atk-3" edge="1">
          <mxGeometry relative="1" as="geometry" />
        </mxCell>
        <mxCell id="zWq0DZ0RbpLFLj6K2Atk-63" value=".&lt;br&gt;" style="text;html=1;align=center;verticalAlign=middle;resizable=0;points=[];autosize=1;strokeColor=none;fillColor=none;strokeWidth=0;" parent="1" vertex="1">
          <mxGeometry x="970" y="940" width="30" height="30" as="geometry" />
        </mxCell>
      </root>
    </mxGraphModel>
  </diagram>
</mxfile>
